<?xml version="1.0" encoding="UTF-8"?><svg id="Capa_1" xmlns="http://www.w3.org/2000/svg" viewBox="0 0 1398 422"><defs><style>.cls-1{fill:#fff;stroke-width:0px;}</style></defs><path class="cls-1" d="M481.68,150v-31.75c3.04.67,4.31,2.74,5.92,4.21,29.31,26.85,58.01,54.43,88.8,79.57,21.25,17.35,44.59,31.78,72.32,36.64,12.98,2.28,26.23.86,39.35.7,5.44-.06,6.12,1.98,5.89,6.44-.14,2.79-1.27,3.17-3.62,3.16-29.7-.16-59.4-.25-89.1-.35-1.62,0-3.24-.02-4.86-.02-65.18,0-130.35,0-195.53,0-21.73,0-43.46,0-66.26,0,7.57-12.48,14.51-23.95,21.48-35.4,24.21-39.74,48.49-79.45,72.57-119.27,2.34-3.87,3.55-4.37,7.19-1.25,16.54,14.14,27.95,32.27,39.82,50.07,1.39,2.09,2.77,4.19,4.2,6.27.15.23.53.3,1.82.97Z"/><path class="cls-1" d="M566.3,356.72c10.1-20.39,20.2-40.78,30.3-61.17,3.66-7.4,7.39-14.77,10.9-22.25,1.24-2.64,2.83-3.58,5.79-3.56,17.29.15,34.57.12,51.86.02,2.64-.02,4.26.65,5.49,3.13,14.13,28.48,28.37,56.91,42.56,85.35.06.12-.09.33-.32,1.08-12.33,0-24.84-.05-37.34.04-2.44.02-3.07-1.57-3.55-3.29-2.76-9.96-8.93-13.28-19.35-12.3-11.6,1.09-23.39.37-35.09.17-3.18-.05-5.14.81-5.9,3.93-2.39,9.82-8.53,11.9-18.39,11.73-41.22-.69-82.47-.35-123.7-.2-3.9.01-5.13-.75-5.1-4.93.22-26.64.18-53.29.03-79.93-.02-3.72.91-4.93,4.76-4.83,10.08.27,20.17.26,30.25,0,3.7-.1,4.45,1.19,4.42,4.61-.15,19.62.05,39.25-.17,58.87-.05,4.08,1.09,5.17,5.12,5.11,16.92-.22,33.85.05,50.78-.19,4.29-.06,6.23.71,5.71,5.48-.46,4.24-.1,8.58-.1,12.87.35.08.69.17,1.04.25ZM640.24,288.96c-.57.34-1.18.48-1.34.83-5.21,11.21-10.31,22.46-15.59,33.64-1.33,2.81-.05,2.98,2.17,2.97,9.34-.04,18.69-.09,28.03.03,3.08.04,4.38-.36,2.69-3.81-5.42-11.1-10.61-22.3-15.97-33.65Z"/><path class="cls-1" d="M264,359.89c-14.21.01-28.39-.39-42.3-3.8-4.56-1.12-8.85-2.92-12.89-5.31-6.9-4.08-11.28-9.92-12.26-18-1.37-11.29-.94-22.62-.38-33.92.54-11.01,6.82-18.19,16.56-22.65,5.59-2.56,11.48-4.11,17.57-4.87,25.28-3.16,50.63-4.02,75.58,1.72,19.87,4.57,27.31,14.77,26.19,32.96-.38,6.27-.06,12.59-.06,18.88,0,.72-.02,1.44,0,2.16.37,12.67-5.74,21.05-17.12,26.01-13.16,5.74-27.21,6.07-41.19,6.77-3.23.16-6.47.02-9.71.02ZM263.87,339c5.75-.17,11.52.19,17.21-1,7.03-1.47,10.17-4.57,10.47-11.65.33-7.9.33-15.85-.02-23.75-.29-6.65-3.42-10.26-9.57-11.24-11.8-1.88-23.67-1.92-35.47-.02-6.03.98-9.34,4.54-9.61,10.64-.38,8.26-.37,16.56-.04,24.82.26,6.39,3.47,9.53,9.84,11.07,5.67,1.36,11.45.95,17.2,1.13Z"/><path class="cls-1" d="M723.21,315.02c0-13.68.11-27.37-.08-41.05-.04-3.37.98-4.3,4.28-4.23,10.44.2,20.89.21,31.33,0,3.46-.07,4.25,1.12,4.17,4.34-.2,8.46.06,16.92-.13,25.38-.07,3.08.85,3.95,3.92,3.92,14.4-.15,28.81-.15,43.22,0,2.98.03,4.04-.7,3.96-3.84-.21-8.46.03-16.92-.13-25.38-.06-3.02.34-4.52,4-4.43,10.62.26,21.25.18,31.87.04,2.85-.04,3.72.91,3.71,3.7-.07,27.55-.08,55.09,0,82.64,0,2.7-1,3.3-3.48,3.28-10.98-.11-21.97-.14-32.95.02-2.86.04-3.16-1.18-3.14-3.53.1-9.18-.12-18.37.12-27.54.09-3.42-1.01-4.19-4.25-4.15-14.22.17-28.45.18-42.67,0-3.37-.04-4.27.97-4.19,4.26.22,9-.05,18,.14,27,.06,3.04-.78,4.02-3.9,3.97-10.62-.18-21.25-.24-31.87.02-3.65.09-4.03-1.4-4-4.43.13-13.32.06-26.64.06-39.97Z"/><path class="cls-1" d="M1226.43,359.89c-11.34.06-22.66-.1-33.92-1.65-16.38-2.26-24.74-10.42-25.7-24.82-.18-2.66.34-3.52,3.02-3.49,10.44.1,20.88.09,31.32,0,2.13-.02,3.38.49,3.67,2.78.48,3.74,2.9,5.71,6.44,6.23,11.98,1.78,23.99,1.71,35.98.07,4.51-.61,6.4-3.45,6.24-7.93-.17-4.7-3.17-6.11-7.15-6.32-14.36-.76-28.73-1.37-43.08-2.22-7.17-.43-14.36-.99-21.23-3.39-9.75-3.4-14.46-9.55-14.97-19.52-.67-13.14,3.03-20.27,12.81-24.92,6.8-3.23,14.13-4.25,21.47-4.7,20.48-1.23,40.97-1.64,61.41.69,5.21.59,10.21,2,14.89,4.41,7.68,3.96,11.74,11.4,11.23,19.94-.15,2.53-1.25,2.9-3.36,2.89-10.44-.06-20.88-.03-31.32-.02-1.67,0-3.33.08-3.58-2.22-.46-4.24-3.49-5.7-7.09-6.08-10.4-1.12-20.82-1.19-31.18.54-3.48.58-6.13,2.21-6.04,6.31.09,4.13,2.46,6.18,6.34,6.71,11.96,1.64,24.04,1.22,36.05,2.1,9.85.72,19.77,1.1,29.3,4.01,10.77,3.28,14.63,8.54,14.75,19.65.02,1.8.02,3.6,0,5.4-.12,10.77-3.81,16.08-14.04,19.85-13.39,4.93-27.46,5.12-41.47,5.68-3.59.14-7.2.02-10.8.02Z"/><path class="cls-1" d="M1161.97,359.33c-12.7,0-24.93-.08-37.16.07-2.51.03-3.71-1.09-4.23-3.15-2.7-10.88-9.87-13.32-20.32-12.43-11.25.96-22.66.31-33.99.16-3.02-.04-5.28.41-6.03,3.7-2.33,10.21-8.83,12.93-18.8,11.86-8.89-.95-17.96-.2-27.01-.2-.5-2.09.85-3.51,1.57-4.99,13.23-26.88,26.6-53.7,39.77-80.62,1.49-3.05,3.28-4.02,6.59-3.98,16.91.17,33.83.1,50.74.05,2.61,0,4.6.08,6.06,3.03,13.96,28.14,28.11,56.19,42.19,84.27.23.45.28.99.62,2.24ZM1088.26,287.89c-5.82,12.62-11.07,23.99-16.31,35.37-.69,1.49-1.81,3.12,1.27,3.12,10.06-.02,20.12-.02,30.18,0,2.5,0,2.61-1.01,1.66-3-5.46-11.42-10.84-22.88-16.8-35.49Z"/><path class="cls-1" d="M877.57,304.22c0-10.08.13-20.16-.07-30.24-.06-3.26.76-4.33,4.17-4.26,10.26.23,20.53.28,30.78-.01,4.02-.11,4.7,1.4,4.67,4.97-.16,17.46-.09,34.92-.07,52.38,0,7.49,1.71,10.09,8.85,11.09,9.99,1.4,20.12,1.46,30.13.07,6.76-.94,8.84-3.75,8.87-10.63.07-17.46.19-34.92-.09-52.38-.07-4.61,1.35-5.67,5.73-5.52,9.89.34,19.8.21,29.7.04,3.01-.05,4.04.76,4.02,3.9-.13,19.26.07,38.52-.13,57.78-.12,11.66-5.85,19.24-17.29,23.41-10.09,3.69-20.69,4.53-31.31,4.82-17.99.49-35.98.74-53.79-2.46-3.17-.57-6.34-1.37-9.37-2.45-9.89-3.54-14.63-10.2-14.77-20.82-.13-9.9-.03-19.8-.03-29.7Z"/><path class="cls-1" d="M120.81,359.9c-13.49,0-26.98.02-40.28-2.67-18.6-3.76-26.43-13.35-26.43-32.22,0-7.56-.01-15.11,0-22.67.02-14.04,5.83-22.37,19-27.57,8.32-3.29,17.1-4.32,25.86-4.85,19.03-1.15,38.08-1.37,57.09.79,14.75,1.68,23.46,8.04,26.26,19.31,2.8,11.29,2.23,12.04-9.22,12.04-8.82,0-17.64-.01-26.45,0-2.17,0-4.02.39-4.08-3.1-.07-4.33-3.37-6.74-7.32-7.5-10.52-2.04-21.12-2.02-31.63,0-5.06.97-8.31,4.15-8.62,9.62-.51,8.98-.57,17.96.04,26.94.35,5.23,3.41,8.42,8.2,9.43,10.66,2.25,21.42,2.24,32.15.28,4.7-.86,7.32-3.79,7.36-8.58.03-2.94.99-4.02,4.07-3.97,10.98.17,21.96.16,32.93,0,3.07-.04,3.9.98,3.96,4.01.24,12.98-4.59,20.58-16.56,25.54-10.18,4.22-20.94,4.78-31.73,5.11-4.85.15-9.72.03-14.58.03Z"/><path class="cls-1" d="M282.84,88.35c9.16-7.7,17.17-14.35,25.07-21.14,1.69-1.45,3.45-1.65,5.47-1.65,19.44.02,38.88,0,58.33.02,3.08,0,6.06.66,8.95,1.68,7.96,2.82,10.62,7.7,8.87,15.85-1.4,6.48-4.86,11.95-8.32,17.4-27.14,42.79-54.32,85.55-81.48,128.33-1.16,1.82-2.24,3.68-3.36,5.53-5.02,8.3-12.46,12.8-22.04,13.6-6.26.53-12.56.94-18.84.95-64.27.07-128.54.04-192.8.04h-6.23c2.79-5.07,6.09-7.11,11.73-7.09,60.67.22,121.33.19,182,.07,7.89-.01,15.8-.08,23.68-1.23,7.37-1.07,12.84-5.03,16.54-10.95,25.86-41.47,51.56-83.04,77.17-124.66,6.29-10.22,2.51-16.74-9.4-16.76-22.86-.05-45.73-.01-68.59-.01-1.76,0-3.53,0-6.72,0Z"/><path class="cls-1" d="M243.99,121.47c9.91-8,18.68-15.06,27.43-22.15,1.74-1.41,3.76-.98,5.7-.99,21.78-.12,43.56-.24,65.35-.27,2.5,0,5.06.36,7.47.98,5.27,1.36,7.21,4.82,6.1,10.15-.91,4.32-3.17,7.99-5.49,11.63-21.42,33.67-42.9,67.31-64.25,101.03-5.01,7.91-12.21,12-21.19,13.21-4.62.62-9.32.91-13.98.91-58.16.06-116.32.04-174.48.04h-6.65c3.33-4.45,5.8-7.47,11.73-7.45,58.52.28,117.04.18,175.56.17,12.99,0,21.84-6.49,28.4-17.35,14.12-23.38,28.58-46.56,42.87-69.83,1.87-3.05,4.29-5.77,5.46-9.25,1.56-4.61.26-7.63-4.24-9.45-3.59-1.46-7.4-1.37-11.18-1.37-24.31,0-48.61,0-74.61,0Z"/><path class="cls-1" d="M400.36,359.33c-15.31,0-30.62-.1-45.93.08-3.47.04-4.52-.83-4.5-4.42.16-26.83.16-53.66,0-80.49-.02-3.81,1.06-4.86,4.82-4.77,9.9.26,19.82.34,29.71-.03,4.35-.16,4.94,1.45,4.91,5.24-.18,19.27.08,38.54-.2,57.8-.07,4.64,1.39,5.64,5.76,5.58,17.11-.24,34.22-.01,51.33-.17,3.45-.03,4.8.78,4.52,4.46-.4,5.35,1.73,12.41-.95,15.65-2.8,3.39-10.11.94-15.44,1.02-11.34.16-22.69.05-34.04.05Z"/><path class="cls-1" d="M86.5,222.23c3.36-4.22,6.65-5.84,11.47-5.82,51.15.18,102.29-.02,153.44.23,9.19.05,15.66-3.07,20.83-10.67,8.62-12.65,15.48-26.33,23.61-39.26,2.97-4.73.55-8.87-5.1-9.57-1.76-.22-3.58-.03-5.37-.03-26.65,0-53.31,0-79.99,0-.62-2.04,1.19-2.47,2.15-3.26,7.34-6.09,14.83-12,22.08-18.2,2.37-2.03,4.75-2.77,7.8-2.76,25.03.09,50.07.04,75.1.06,7.67,0,9.66,2.87,6.93,10.17-1,2.67-2.35,5.26-3.85,7.7-11.74,19.16-23.54,38.28-35.35,57.39-5.57,9.02-13.09,14.16-24.31,14.12-56.18-.21-112.37-.1-169.45-.1Z"/><path class="cls-1" d="M1311.82,314.54c0-13.3.11-26.6-.08-39.89-.05-3.57.64-5.05,4.64-4.93,10.06.29,20.13.19,30.19.04,3-.04,4.45.33,4.43,3.98-.16,27.31-.15,54.63-.01,81.94.02,3.3-1.23,3.74-4.05,3.71-10.42-.14-20.85-.16-31.27,0-3.03.05-3.95-.81-3.91-3.88.16-13.66.07-27.31.07-40.97Z"/><path class="cls-1" d="M321.25,246.98c-4.41-2.31-9-4.42-13.25-7.08-2.07-1.29.25-2.84.95-3.99,16.56-27.36,33.18-54.69,49.81-82.01,15.5-25.48,31.08-50.92,46.44-76.49,1.91-3.18,3.4-4,6.51-1.83,3.5,2.44,9.62,3.12,10.45,6.71.68,2.93-3.48,7.03-5.61,10.54-30.44,50.05-60.89,100.09-91.4,150.09-.93,1.53-1.22,3.92-3.88,4.06Z"/><path class="cls-1" d="M142.89,209.98c16.53-14.29,31.9-27.53,47.21-40.85,1.58-1.37,3.29-1.22,5.06-1.22,25.73-.01,51.46-.06,77.19.02,9.88.03,12.62,5.01,7.55,13.47-3.97,6.62-8.19,13.1-12.04,19.78-3.27,5.66-8,8.75-14.45,8.77-36.29.07-72.58.04-110.52.04ZM168.16,201.88l.61,1.67c25.52,0,51.05-.51,76.54.25,10.14.31,16.26-3.7,21.06-11.68,2.52-4.2,1.92-6.21-2.75-7.37-1.55-.38-3.2-.44-4.81-.45-22.48-.03-44.96-.03-67.44,0-1.55,0-3.19-.44-4.61.84-6.18,5.6-12.4,11.15-18.6,16.72Z"/><path class="cls-1" d="M326.68,58.48c1.49-4.61,3.73-6.43,8.34-6.35,19.96.33,39.92.19,59.88.35,7.74.06,15.36,1.34,23,2.58,18.88,3.06,30.33,16.11,40.81,30.28,9.76,13.2,15.33,28.32,18.88,44.23.25,1.14.74,2.4-.24,3.85-10.93-18.25-22.89-35.51-38.89-49.61-19.15-16.87-41.39-25.39-66.92-25.32-14.74.04-29.49,0-44.86,0Z"/></svg>